<svg xmlns="http://www.w3.org/2000/svg" width="2000" height="800" viewBox="0 0 2000 800">
  <style>
    @keyframes animmm {
      0% {
        transform: skewX(16deg)
      }

      to {
        transform: skewX(-16deg)
      }
    }

    .kofff {
      animation: animmm ease-in-out 3s infinite alternate;
      fill: #FAEBD7;
    }
  </style>
  <g fill="none" fill-rule="evenodd">
    <rect class="kofff" width="200" height="800" x="181" y="0" transform-origin="91 400" fill-opacity="0.35" />
    <rect class="kofff" width="200" height="800" x="543" y="0" transform-origin="451 400" style="animation-delay: -0.5s"
      fill-opacity="0.7" />
    <rect class="kofff" width="200" height="800" x="905" y="0" transform-origin="815 400"
      style="animation-delay: -1s" />
    <rect class="kofff" width="200" height="800" x="1267" y="0" transform-origin="1248 400"
      style="animation-delay: -1.5s" fill-opacity="0.7" />
    <rect class="kofff" width="200" height="800" x="1629" y="0" transform-origin="1610 400" style="animation-delay: -2s"
      fill-opacity="0.35" />
  </g>
  <g id="kof-script-24-3d" transform="translate(715.6182, 160)">
    <path
      d="M392.202821,8.9031327 C408.147637,14.8716056 422.294478,23.4712879 433.820003,34.3329917 C434.707449,35.1691973 442.662137,43.1133048 457.684068,58.1653141 C480.211951,79.9467762 491.046625,109.312183 486.877225,140.365634 L486.7449,141.316771 C485.101438,152.724806 482.248976,163.45867 478.26643,173.487867 L477.967023,174.232346 L478.576699,174.432708 C492.915191,179.220354 506.048856,186.847984 516.905789,197.325639 C536.646209,217.365499 547.059667,228.071846 548.146165,229.444682 C560.654735,245.259022 566.942955,263.35269 567,282.272392 C567.042418,298.355325 562.623419,314.154743 554.756425,329.133466 C542.202909,353.035307 520.443469,374.793535 500.310787,385.035921 C485.885511,392.372329 469.724063,392.713981 456.260948,386.356649 C450.388049,421.604529 442.229119,455.005844 432.280834,485.490817 C425.589026,505.996004 410.032257,520.253805 390.344975,524.034003 C372.877879,527.387898 354.658519,521.864522 341.811949,509.701994 C341.429514,509.338896 333.753247,501.660152 318.783148,486.665764 L318.326439,486.22512 C304.594422,472.793073 299.193267,453.522876 304.127928,434.348312 C300.853859,432.563852 297.769463,430.3996 294.951158,427.880855 C294.356412,427.349174 292.793173,425.810134 290.261441,423.263735 C289.178148,424.615501 288.405573,425.562391 287.943716,426.104404 L287.596173,426.50969 C264.178846,453.644138 234.715581,468.316985 203.941568,468.956048 C175.657591,469.543403 148.680335,458.043252 129.534313,437.964477 L129.373015,437.793678 L106.645185,415.060516 C93.5826006,401.351642 84.818398,384.320523 81.5583252,365.887229 L81.4655472,365.351205 L81.1972341,365.336174 C65.1170436,364.335579 49.4851794,357.288813 38.428201,345.761554 L16.9578879,324.288322 L16.7974838,324.132997 C0.435312366,308.043394 -4.94708695,284.491651 5.00265587,262.241819 L5.31203376,261.561117 C12.2012684,246.644424 17.1270996,227.040199 19.8373951,205.447557 L19.9259425,204.734995 C22.0765668,187.252491 22.5643647,169.629577 21.6766126,159.189151 C20.1072325,140.733622 27.3115,122.579866 41.2671948,110.716378 C56.427895,97.8285352 77.0970243,94.3186491 97.0498402,101.323178 L99.6261034,102.224333 C131.348891,113.280335 161.178868,122.176671 188.986375,128.423258 L190.753849,128.816888 L190.807986,128.510338 C193.176619,115.170997 196.734808,103.059472 201.746838,91.8651849 L202.032092,91.2325235 C219.885133,51.9122713 250.432147,23.8248521 287.898497,9.77733008 C322.011409,-3.01286367 359.863521,-3.20258961 392.202821,8.9031327 Z"
      id="Path" fill="#1d3030" fill-rule="nonzero"></path>
    <g transform="translate(32.5287, 32.531)" fill="#FAEBD7" id="Shape">
      <path
        d="M370.540489,249.300286 L347.806708,226.550972 L364.127181,221.826846 C365.681763,217.717876 368.458931,213.782026 372.713391,210.379818 C394.842905,192.682394 428.846965,186.477896 456.752146,195.017507 L462.315265,188.679695 L484.123324,210.539034 C485.032577,211.396709 485.917716,212.283978 486.77753,213.199628 C487.936485,214.434273 489.046482,215.721803 490.104511,217.058727 C523.639561,259.458346 477.801358,310.905697 453.012367,323.517521 C445.365933,327.406521 438.265798,325.978142 434.027147,322.001535 C433.822687,321.808607 433.623521,321.609182 433.429907,321.403521 L410.815574,298.783522 L449.367444,242.764405 C436.115732,237.41046 416.621102,239.175937 403.142791,250.094465 C390.990704,259.938662 378.406497,257.200174 370.540489,249.300286 L370.540489,249.300286 Z M29.233108,290.36886 L7.50661959,268.65733 L36.2757412,234.099543 C45.0407652,199.731815 46.0200984,163.360945 44.6164869,146.860745 C43.2246365,130.496193 57.2553102,115.601133 76.8186289,122.466878 C114.497594,135.690021 163.418442,150.807102 210.179104,157.688068 C210.922513,134.476986 214.04676,113.003458 222.158602,95.1433509 C252.373991,28.6172706 322.660243,11.6522896 371.312692,29.8588426 C373.49001,30.6727565 375.643184,31.5606482 377.769024,32.5212024 C378.221915,30.2762513 378.688849,27.9791718 379.168071,25.6286319 L402.240945,48.6962649 C417.54972,63.2336547 425.303287,82.6758821 422.196243,104.24853 C413.162995,166.945447 359.109205,193.579508 306.917887,202.550751 L327.550766,223.289152 C332.743216,227.662621 335.960849,234.817737 334.93219,244.880444 C332.037548,273.189658 326.369387,318.477359 310.479577,363.574241 C305.67858,377.198049 291.828887,377.82968 284.269291,371.075802 C283.834171,370.686948 283.419318,370.272198 283.026649,369.833468 L261.16166,347.983246 C273.987081,314.257612 279.341554,309.328613 287.016128,283.690321 C287.298571,267.607339 287.097579,253.040841 286.978739,244.138849 C286.81303,231.733022 293.646947,223.620377 302.213436,220.091428 C303.35093,214.689277 304.546352,208.916899 305.806723,202.738908 C286.907996,205.898962 268.296276,206.757561 252.201963,206.189854 C252.462288,212.215646 266.437842,331.23553 230.641184,372.70244 C193.35016,415.898722 145.470435,409.338899 120.342348,382.545979 L97.8527906,360.071736 C97.8527906,360.071736 73.6931532,264.677108 167.769006,241.999487 L190.842407,265.06712 L190.826433,265.078155 C198.123247,273.095293 195.288288,287.695466 179.952832,292.056378 C150.28688,300.492448 141.188858,327.316379 147.14034,342.416528 C155.265874,363.03393 189.732648,365.467229 203.807733,336.13447 C220.90929,300.493589 211.497755,214.070394 210.956216,203.138624 C186.606997,200.134194 109.099412,188.234432 93.4969606,179.846686 C94.6974733,218.522436 83.1104809,273.487209 76.2514617,286.461504 C66.0141903,305.82649 40.9071678,302.984153 29.233108,290.36886 Z M368.825243,78.5996374 C341.407502,50.2959684 253.711378,56.098622 250.220653,161.81493 C283.400148,165.794481 339.934127,155.764556 364.737985,128.928141 L363.925088,128.11175 C363.925088,128.11175 358.919818,134.553824 368.825243,78.5996374 Z M330.562271,452.708341 L308.772286,430.82915 C329.402075,376.392839 348.098204,374.746714 370.95389,262.249762 L392.717626,284.199746 C396.215713,287.015667 398.406611,291.85851 397.727643,298.868338 C392.320395,354.764848 381.196163,403.781316 368.479505,442.869651 C361.868313,463.190257 341.850995,463.475712 331.426731,453.576125 C331.130995,453.294476 330.842258,453.005215 330.562271,452.708341 L330.562271,452.708341 Z"
        fill-opacity="0.35"></path>
      <path
        d="M430.075975,300.494922 C412.321006,309.544203 397.522568,289.809721 414.739189,276.187409 C477.452371,226.566484 412.093041,201.234402 380.291918,227.048478 C353.171093,249.062998 323.896876,208.171105 349.914701,187.32118 C382.354125,161.325166 440.358952,160.119612 467.104512,194.002217 C500.582054,236.415341 454.822457,287.879081 430.075975,300.494922 Z M70.428457,156.824884 C71.6291448,195.500664 60.0404615,250.46548 53.1804413,263.439786 C37.8079847,292.514398 -11.0889274,271.529035 2.29315067,242.567812 C21.1007087,201.864535 23.3913031,145.588895 21.5408498,123.838917 C20.1487962,107.474352 34.1815176,92.5792804 53.7476913,99.445031 C91.4321555,112.668184 140.360143,127.785277 187.127629,134.666248 C187.871146,111.455148 190.995849,89.9816037 199.108875,72.121482 C229.328674,5.59534931 299.625183,-11.369645 348.284732,6.83692237 C382.972831,19.8156034 403.963362,47.9928052 399.175709,81.2266682 C386.803656,167.084128 289.995452,185.313906 229.15662,183.168073 C229.416983,189.193869 243.394577,308.213847 207.592695,349.680789 C155.008394,410.583696 81.3726418,372.577406 80.13965,318.413163 C78.7744579,258.439248 137.532495,238.474578 150.897544,236.875145 C174.958879,233.995707 179.479674,262.613719 156.896945,269.034665 C127.226664,277.470741 118.127315,304.294693 124.079665,319.394854 C132.206385,340.012272 166.678189,342.445573 180.755328,313.112791 C197.85938,277.471882 188.446472,191.048618 187.904854,180.11684 C163.552081,177.112408 86.0331858,165.212636 70.428457,156.824884 Z M226.699912,138.792991 C271.382279,144.138916 358.315767,124.20397 353.62996,72.2070101 C349.657211,28.103743 230.780674,15.5132708 226.699912,138.792991 L226.699912,138.792991 Z M344.083473,273.194375 C347.432008,253.253461 377.486382,252.392776 375.207834,275.892863 C369.787733,331.773272 358.637059,380.775622 345.890174,419.852699 C335.497261,451.713643 292.046994,434.307793 304.485161,405.616391 C322.531116,363.991885 335.676177,323.284377 344.083473,273.194375 L344.083473,273.194375 Z M287.576384,340.637468 C280.137971,361.694377 251.013277,351.704136 257.041417,331.373722 C265.172651,303.953337 264.328001,244.033197 264.022934,221.245066 C263.567622,187.251434 315.824056,185.504046 312.083738,221.986394 C309.182616,250.285418 303.501766,295.556819 287.576384,340.637468 Z">
      </path>
    </g>
  </g>
</svg>