<svg width="160" height="160" viewBox="0 0 160 160" fill="none" xmlns="http://www.w3.org/2000/svg">
<path d="M104.54 22.7596C108.139 24.1067 111.333 26.0478 113.935 28.4994C114.135 28.6882 115.931 30.4813 119.322 33.8787C124.408 38.7951 126.853 45.4233 125.912 52.4325L125.882 52.6472C125.511 55.2222 124.867 57.645 123.968 59.9087L123.901 60.0767L124.038 60.122C127.275 61.2026 130.24 62.9243 132.691 65.2892C137.148 69.8125 139.498 72.2291 139.744 72.5389C142.567 76.1085 143.987 80.1925 144 84.4629C144.009 88.0931 143.012 91.6592 141.236 95.0401C138.402 100.435 133.49 105.346 128.945 107.658C125.688 109.314 122.04 109.391 119.001 107.956C117.675 115.912 115.833 123.451 113.587 130.332C112.076 134.961 108.564 138.179 104.12 139.032C100.177 139.789 96.0639 138.542 93.1638 135.797C93.0775 135.715 91.3446 133.982 87.9651 130.597L87.862 130.498C84.762 127.466 83.5427 123.117 84.6567 118.789C83.9175 118.386 83.2213 117.897 82.585 117.329C82.4508 117.209 82.0979 116.861 81.5263 116.287C81.2818 116.592 81.1074 116.806 81.0031 116.928L80.9246 117.019C75.6382 123.144 68.9869 126.456 62.0397 126.6C55.6546 126.733 49.5645 124.137 45.2423 119.605L45.2059 119.566L40.0751 114.435C37.1262 111.341 35.1477 107.497 34.4117 103.336L34.3908 103.215L34.3302 103.212C30.7001 102.986 27.1712 101.395 24.6751 98.7933L19.8282 93.9465L19.792 93.9114C16.0983 90.2798 14.8832 84.9638 17.1293 79.9417L17.1992 79.7881C18.7544 76.4212 19.8664 71.9962 20.4783 67.1224L20.4983 66.9616C20.9838 63.0156 21.0939 59.0378 20.8935 56.6813C20.5392 52.5156 22.1656 48.418 25.316 45.7403C28.7386 42.8313 33.4046 42.0391 37.9089 43.6201L38.4905 43.8235C45.6519 46.319 52.386 48.327 58.6635 49.737L59.0625 49.8258L59.0748 49.7566C59.6095 46.7457 60.4127 44.012 61.5442 41.4853L61.6086 41.3425C65.6389 32.4673 72.5349 26.1276 80.9929 22.9569C88.6939 20.07 97.2389 20.0271 104.54 22.7596Z" fill="#FAEBD7"/>
<path d="M106.993 84.3633L101.86 79.2285L105.545 78.1622C105.896 77.2347 106.523 76.3463 107.483 75.5784C112.479 71.5839 120.155 70.1834 126.455 72.1109L127.711 70.6804L132.634 75.6144C132.839 75.8079 133.039 76.0082 133.233 76.2149C133.495 76.4936 133.745 76.7842 133.984 77.0859C141.555 86.6561 131.207 98.2685 125.611 101.115C123.884 101.993 122.282 101.671 121.325 100.773C121.279 100.729 121.234 100.684 121.19 100.638L116.085 95.5324L124.788 82.8881C121.796 81.6796 117.395 82.0781 114.353 84.5426C111.609 86.7646 108.768 86.1464 106.993 84.3633ZM29.9427 93.6331L25.038 88.7325L31.5326 80.9323C33.5113 73.175 33.7324 64.9656 33.4155 61.2413C33.1013 57.5475 36.2687 54.1855 40.6851 55.7352C49.1911 58.7199 60.2349 62.132 70.7911 63.6851C70.959 58.4461 71.6643 53.5992 73.4955 49.5679C80.3166 34.552 96.1837 30.7228 107.167 34.8323C107.658 35.016 108.145 35.2164 108.624 35.4332C108.727 34.9265 108.832 34.408 108.94 33.8774L114.149 39.0841C117.605 42.3654 119.355 46.7538 118.654 51.6231C116.615 65.7747 104.412 71.7863 92.6298 73.8113L97.2877 78.4922C98.4599 79.4794 99.1863 81.0944 98.9541 83.3657C98.3006 89.7555 97.021 99.9776 93.4339 110.157C92.3501 113.232 89.2235 113.374 87.5169 111.85C87.4187 111.762 87.3251 111.668 87.2364 111.569L82.3004 106.637C85.1957 99.0251 86.4045 97.9126 88.137 92.1256C88.2008 88.4955 88.1554 85.2076 88.1286 83.1983C88.0912 80.3981 89.6339 78.567 91.5678 77.7705C91.8246 76.5511 92.0945 75.2482 92.379 73.8538C88.1126 74.567 83.911 74.7608 80.2778 74.6327C80.3365 75.9928 83.4915 102.857 75.4104 112.217C66.992 121.967 56.1832 120.486 50.5106 114.439L45.4335 109.366C45.4335 109.366 39.9795 87.8341 61.2171 82.7154L66.4259 87.9221L66.4223 87.9246C68.0695 89.7342 67.4295 93.0297 63.9676 94.014C57.2705 95.9181 55.2166 101.973 56.5602 105.381C58.3945 110.035 66.1754 110.584 69.3528 103.963C73.2135 95.9184 71.0888 76.4114 70.9666 73.944C65.4697 73.2658 47.9725 70.5799 44.4502 68.6867C44.7212 77.4163 42.1055 89.8227 40.5571 92.7511C38.246 97.1221 32.5781 96.4805 29.9427 93.6331ZM106.605 45.8337C100.416 39.4452 80.6185 40.7549 79.8305 64.6166C87.3207 65.5149 100.083 63.251 105.683 57.1936L105.499 57.0093C105.499 57.0093 104.369 58.4634 106.605 45.8337ZM97.9676 130.275L93.0485 125.337C97.7056 113.05 101.926 112.678 107.086 87.2862L111.999 92.2406C112.789 92.8762 113.283 93.9693 113.13 95.5515C111.909 108.168 109.398 119.232 106.527 128.055C105.035 132.641 100.516 132.706 98.1627 130.471C98.0959 130.408 98.0308 130.342 97.9676 130.275Z" fill="#1D3030" fill-opacity="0.35"/>
<path d="M120.433 95.9188C116.425 97.9613 113.084 93.507 116.97 90.4322C131.128 79.2321 116.373 73.5142 109.194 79.3409C103.072 84.3098 96.4629 75.08 102.336 70.3738C109.66 64.5062 122.754 64.2341 128.792 71.8818C136.349 81.4551 126.019 93.0712 120.433 95.9188ZM39.2426 63.4904C39.5136 72.2201 36.8975 84.6264 35.3488 87.5549C31.8785 94.1175 20.8401 89.3808 23.8611 82.8438C28.1069 73.6565 28.624 60.9543 28.2062 56.045C27.892 52.3513 31.0598 48.9892 35.4769 50.5389C43.9841 53.5236 55.0296 56.9357 65.5873 58.4889C65.7552 53.2498 66.4606 48.4029 68.2921 44.3716C75.1142 29.3557 90.9836 25.5265 101.968 29.636C109.799 32.5654 114.538 38.9254 113.457 46.4268C110.664 65.806 88.8097 69.9208 75.0753 69.4364C75.1341 70.7965 78.2895 97.661 70.2073 107.021C58.3364 120.767 41.7132 112.189 41.4349 99.9632C41.1267 86.4262 54.3912 81.9199 57.4084 81.5589C62.8402 80.9089 63.8608 87.3684 58.7628 88.8177C52.0647 90.7219 50.0105 96.7764 51.3543 100.185C53.1889 104.838 60.9709 105.388 64.1488 98.7668C68.01 90.7221 65.885 71.2152 65.7628 68.7477C60.2652 68.0696 42.7653 65.3836 39.2426 63.4904ZM74.5207 59.4203C84.6077 60.627 104.233 56.1274 103.175 44.3909C102.278 34.4362 75.442 31.5943 74.5207 59.4203ZM101.02 89.7566C101.776 85.2557 108.561 85.0614 108.046 90.3657C106.823 102.979 104.305 114.039 101.428 122.86C99.0817 130.051 89.2728 126.122 92.0807 119.646C96.1546 110.251 99.1221 101.063 101.02 89.7566ZM88.2636 104.98C86.5843 109.732 80.0095 107.477 81.3703 102.889C83.2059 96.6994 83.0152 83.1746 82.9464 78.0309C82.8436 70.3581 94.6404 69.9637 93.7961 78.1983C93.1411 84.5858 91.8587 94.8042 88.2636 104.98Z" fill="#1D3030"/>
</svg>
