<svg width="320" height="320" viewBox="0 0 320 320" fill="none" xmlns="http://www.w3.org/2000/svg">
<path d="M209.079 45.5191C216.278 48.2135 222.665 52.0956 227.869 56.9989C228.27 57.3764 231.861 60.9626 238.644 67.7575C248.815 77.5903 253.707 90.8466 251.824 104.865L251.765 105.294C251.023 110.444 249.735 115.29 247.937 119.817L247.801 120.153L248.077 120.244C254.551 122.405 260.48 125.849 265.382 130.578C274.295 139.625 278.997 144.458 279.487 145.078C285.135 152.217 287.974 160.385 288 168.926C288.019 176.186 286.024 183.318 282.472 190.08C276.804 200.87 266.98 210.693 257.89 215.316C251.377 218.628 244.08 218.782 238.001 215.912C235.35 231.824 231.666 246.903 227.174 260.664C224.153 269.921 217.129 276.357 208.24 278.064C200.354 279.578 192.128 277.085 186.328 271.594C186.155 271.43 182.689 267.964 175.93 261.195L175.724 260.996C169.524 254.932 167.085 246.233 169.313 237.577C167.835 236.772 166.443 235.795 165.17 234.658C164.902 234.418 164.196 233.723 163.053 232.573C162.564 233.184 162.215 233.611 162.006 233.856L161.849 234.039C151.276 246.288 137.974 252.912 124.079 253.2C111.309 253.465 99.129 248.274 90.4846 239.21L90.4117 239.133L80.1502 228.87C74.2524 222.682 70.2954 214.993 68.8235 206.672L68.7816 206.43L68.6604 206.423C61.4003 205.971 54.3425 202.79 49.3503 197.587L39.6565 187.893L39.584 187.823C32.1965 180.56 29.7664 169.928 34.2587 159.883L34.3984 159.576C37.5089 152.842 39.7329 143.992 40.9566 134.245L40.9965 133.923C41.9675 126.031 42.1878 118.076 41.787 113.363C41.0784 105.031 44.3311 96.8361 50.6321 91.4805C57.4771 85.6626 66.8092 84.0781 75.8179 87.2402L76.981 87.647C91.3038 92.638 104.772 96.654 117.327 99.4739L118.125 99.6516L118.15 99.5132C119.219 93.4915 120.825 88.024 123.088 82.9706L123.217 82.685C131.278 64.9347 145.07 52.2552 161.986 45.9138C177.388 40.1399 194.478 40.0543 209.079 45.5191Z" fill="#FAEBD7"/>
<path d="M213.985 168.727L203.721 158.457L211.09 156.324C211.792 154.47 213.045 152.693 214.966 151.157C224.958 143.168 240.31 140.367 252.91 144.222L255.421 141.361L265.268 151.229C265.678 151.616 266.078 152.017 266.466 152.43C266.989 152.987 267.491 153.568 267.968 154.172C283.109 173.312 262.413 196.537 251.221 202.231C247.769 203.986 244.563 203.341 242.649 201.546C242.557 201.459 242.467 201.369 242.38 201.276L232.169 191.065L249.575 165.776C243.592 163.359 234.791 164.156 228.705 169.085C223.218 173.529 217.537 172.293 213.985 168.727ZM59.8854 187.266L50.0759 177.465L63.0651 161.865C67.0225 146.35 67.4647 129.931 66.831 122.483C66.2026 115.095 72.5374 108.371 81.3702 111.471C98.3822 117.44 120.47 124.264 141.582 127.37C141.918 116.892 143.329 107.198 146.991 99.1359C160.633 69.1041 192.367 61.4457 214.334 69.6646C215.317 70.0321 216.289 70.4329 217.249 70.8665C217.453 69.8531 217.664 68.8161 217.881 67.755L228.298 78.1684C235.21 84.731 238.711 93.5077 237.308 103.246C233.229 131.549 208.824 143.573 185.26 147.623L194.575 156.985C196.92 158.959 198.373 162.189 197.908 166.732C196.601 179.511 194.042 199.955 186.868 220.313C184.7 226.463 178.447 226.749 175.034 223.7C174.837 223.524 174.65 223.337 174.473 223.139L164.601 213.275C170.391 198.05 172.809 195.825 176.274 184.251C176.402 176.991 176.311 170.415 176.257 166.397C176.182 160.796 179.268 157.134 183.136 155.541C183.649 153.102 184.189 150.497 184.758 147.708C176.225 149.134 167.822 149.522 160.556 149.265C160.673 151.986 166.983 205.715 150.821 224.434C133.984 243.934 112.366 240.973 101.021 228.878L90.8671 218.732C90.8671 218.732 79.9591 175.668 122.434 165.431L132.852 175.844L132.845 175.849C136.139 179.469 134.859 186.059 127.935 188.028C114.541 191.836 110.433 203.945 113.12 210.762C116.789 220.069 132.351 221.168 138.706 207.926C146.427 191.837 142.178 152.823 141.933 147.888C130.939 146.532 95.9449 141.16 88.9004 137.373C89.4425 154.833 84.211 179.645 81.1141 185.502C76.492 194.244 65.1562 192.961 59.8854 187.266ZM213.211 91.6676C200.832 78.8905 161.237 81.51 159.661 129.233C174.641 131.03 200.166 126.502 211.365 114.387L210.998 114.019C210.998 114.019 208.738 116.927 213.211 91.6676ZM195.935 260.551L186.097 250.674C195.411 226.1 203.853 225.357 214.172 174.573L223.998 184.481C225.578 185.753 226.567 187.939 226.26 191.103C223.819 216.336 218.796 238.464 213.055 256.109C210.07 265.283 201.032 265.412 196.325 260.943C196.192 260.816 196.062 260.685 195.935 260.551Z" fill="#1D3030" fill-opacity="0.35"/>
<path d="M240.865 191.837C232.849 195.923 226.168 187.014 233.941 180.864C262.256 158.464 232.746 147.028 218.388 158.682C206.143 168.62 192.926 150.16 204.673 140.748C219.319 129.012 245.508 128.468 257.584 143.764C272.699 162.91 252.038 186.142 240.865 191.837ZM78.4851 126.981C79.0272 144.44 73.795 169.253 70.6977 175.11C63.757 188.235 41.6801 178.761 47.7221 165.687C56.2137 147.313 57.2479 121.908 56.4124 112.09C55.7839 104.702 62.1197 97.9784 70.9538 101.078C87.9683 107.047 110.059 113.871 131.175 116.978C131.51 106.499 132.921 96.8057 136.584 88.7431C150.228 58.7113 181.967 51.0528 203.937 59.2718C219.598 65.1308 229.076 77.8508 226.914 92.8535C221.328 131.612 177.619 139.841 150.151 138.873C150.268 141.593 156.579 195.322 140.415 214.041C116.673 241.535 83.4264 224.378 82.8697 199.926C82.2533 172.852 108.782 163.84 114.817 163.118C125.68 161.818 127.722 174.737 117.526 177.635C104.129 181.444 100.021 193.553 102.709 200.369C106.378 209.677 121.942 210.775 128.298 197.533C136.02 181.444 131.77 142.43 131.526 137.495C120.53 136.139 85.5306 130.767 78.4851 126.981ZM149.041 118.841C169.215 121.254 208.466 112.255 206.35 88.7817C204.557 68.8723 150.884 63.1886 149.041 118.841ZM202.04 179.513C203.552 170.511 217.121 170.123 216.093 180.731C213.645 205.957 208.611 228.078 202.856 245.719C198.163 260.102 178.546 252.244 184.161 239.292C192.309 220.502 198.244 202.125 202.04 179.513ZM176.527 209.959C173.169 219.465 160.019 214.955 162.741 205.777C166.412 193.399 166.03 166.349 165.893 156.062C165.687 140.716 189.281 139.927 187.592 156.396C186.282 169.171 183.717 189.608 176.527 209.959Z" fill="#1D3030"/>
</svg>
