<svg width="160" height="160" viewBox="0 0 160 160" fill="none" xmlns="http://www.w3.org/2000/svg">
<path d="M104.54 22.7596C108.139 24.1067 111.333 26.0478 113.935 28.4994C114.135 28.6882 115.931 30.4813 119.322 33.8787C124.408 38.7951 126.853 45.4233 125.912 52.4325L125.882 52.6472C125.511 55.2222 124.867 57.645 123.968 59.9087L123.901 60.0767L124.038 60.122C127.275 61.2026 130.24 62.9243 132.691 65.2892C137.148 69.8125 139.498 72.2291 139.744 72.5389C142.567 76.1085 143.987 80.1925 144 84.4629C144.009 88.0931 143.012 91.6592 141.236 95.0401C138.402 100.435 133.49 105.346 128.945 107.658C125.688 109.314 122.04 109.391 119.001 107.956C117.675 115.912 115.833 123.451 113.587 130.332C112.076 134.961 108.564 138.179 104.12 139.032C100.177 139.789 96.0639 138.542 93.1638 135.797C93.0775 135.715 91.3446 133.982 87.9651 130.597L87.862 130.498C84.762 127.466 83.5427 123.117 84.6567 118.789C83.9175 118.386 83.2213 117.897 82.585 117.329C82.4508 117.209 82.0979 116.861 81.5263 116.287C81.2818 116.592 81.1074 116.806 81.0031 116.928L80.9246 117.019C75.6382 123.144 68.9869 126.456 62.0397 126.6C55.6546 126.733 49.5645 124.137 45.2423 119.605L45.2059 119.566L40.0751 114.435C37.1262 111.341 35.1477 107.497 34.4117 103.336L34.3908 103.215L34.3302 103.212C30.7001 102.986 27.1712 101.395 24.6751 98.7933L19.8282 93.9465L19.792 93.9114C16.0983 90.2798 14.8832 84.9638 17.1293 79.9417L17.1992 79.7881C18.7544 76.4212 19.8664 71.9962 20.4783 67.1224L20.4983 66.9616C20.9838 63.0156 21.0939 59.0378 20.8935 56.6813C20.5392 52.5156 22.1656 48.418 25.316 45.7403C28.7386 42.8313 33.4046 42.0391 37.9089 43.6201L38.4905 43.8235C45.6519 46.319 52.386 48.327 58.6635 49.737L59.0625 49.8258L59.0748 49.7566C59.6095 46.7457 60.4127 44.012 61.5442 41.4853L61.6086 41.3425C65.6389 32.4673 72.5349 26.1276 80.9929 22.9569C88.6939 20.07 97.2389 20.0271 104.54 22.7596Z" fill="#1D3030"/>
<path d="M106.992 84.3634L101.86 79.2286L105.545 78.1623C105.896 77.2348 106.523 76.3465 107.483 75.5785C112.479 71.584 120.155 70.1835 126.455 72.111L127.711 70.6805L132.634 75.6145C132.839 75.8081 133.039 76.0083 133.233 76.215C133.495 76.4937 133.745 76.7843 133.984 77.0861C141.554 86.6563 131.207 98.2687 125.61 101.115C123.884 101.993 122.281 101.671 121.325 100.773C121.278 100.73 121.233 100.685 121.19 100.638L116.085 95.5325L124.788 82.8882C121.796 81.6797 117.395 82.0782 114.352 84.5427C111.609 86.7647 108.768 86.1466 106.992 84.3634ZM29.9426 93.6332L25.0378 88.7326L31.5325 80.9324C33.5111 73.1751 33.7322 64.9657 33.4154 61.2414C33.1012 57.5477 36.2686 54.1856 40.685 55.7353C49.191 58.72 60.2348 62.1321 70.791 63.6853C70.9588 58.4462 71.6641 53.5993 73.4954 49.568C80.3165 34.5521 96.1836 30.7229 107.167 34.8324C107.658 35.0161 108.144 35.2165 108.624 35.4333C108.727 34.9266 108.832 34.4081 108.94 33.8776L114.149 39.0842C117.605 42.3655 119.355 46.7539 118.654 51.6232C116.614 65.7748 104.412 71.7865 92.6297 73.8114L97.2876 78.4924C98.4598 79.4795 99.1862 81.0945 98.9539 83.3658C98.3005 89.7556 97.0209 99.9777 93.4338 110.157C92.35 113.232 89.2234 113.374 87.5168 111.85C87.4186 111.762 87.3249 111.669 87.2363 111.57L82.3003 106.638C85.1956 99.0252 86.4044 97.9127 88.1369 92.1258C88.2007 88.4956 88.1553 85.2077 88.1285 83.1984C88.0911 80.3983 89.6338 78.5671 91.5677 77.7706C91.8245 76.5512 92.0944 75.2483 92.3789 73.8539C88.1125 74.5671 83.9109 74.7609 80.2776 74.6328C80.3364 75.9929 83.4914 102.857 75.4103 112.217C66.9919 121.967 56.1831 120.486 50.5104 114.439L45.4334 109.366C45.4334 109.366 39.9794 87.8342 61.217 82.7156L66.4258 87.9222L66.4222 87.9247C68.0694 89.7343 67.4294 93.0298 63.9675 94.0141C57.2704 95.9182 55.2165 101.973 56.5601 105.381C58.3944 110.035 66.1752 110.584 69.3527 103.963C73.2133 95.9185 71.0887 76.4116 70.9664 73.9441C65.4696 73.266 47.9723 70.58 44.4501 68.6868C44.7211 77.4164 42.1054 89.8228 40.5569 92.7513C38.2459 97.1222 32.578 96.4807 29.9426 93.6332ZM106.605 45.8339C100.416 39.4453 80.6184 40.7551 79.8304 64.6167C87.3206 65.515 100.083 63.2511 105.683 57.1937L105.499 57.0095C105.499 57.0095 104.369 58.4635 106.605 45.8339ZM97.9674 130.276L93.0484 125.337C97.7055 113.05 101.926 112.678 107.086 87.2863L111.999 92.2408C112.789 92.8763 113.283 93.9694 113.13 95.5517C111.909 108.168 109.398 119.232 106.527 128.055C105.035 132.641 100.516 132.706 98.1626 130.471C98.0958 130.408 98.0306 130.343 97.9674 130.276Z" fill="#FAEBD7" fill-opacity="0.35"/>
<path d="M120.433 95.9188C116.424 97.9613 113.084 93.507 116.97 90.4322C131.128 79.2321 116.373 73.5143 109.194 79.3409C103.071 84.3099 96.4628 75.08 102.336 70.3738C109.659 64.5062 122.754 64.2341 128.792 71.8818C136.349 81.4551 126.019 93.0712 120.433 95.9188ZM39.2424 63.4904C39.5135 72.2201 36.8974 84.6264 35.3487 87.5549C31.8784 94.1175 20.8399 89.3808 23.8609 82.8438C28.1067 73.6565 28.6238 60.9543 28.2061 56.045C27.8918 52.3513 31.0597 48.9892 35.4768 50.5389C43.984 53.5236 55.0295 56.9357 65.5872 58.4889C65.755 53.2498 66.4604 48.4029 68.292 44.3716C75.1141 29.3557 90.9834 25.5265 101.968 29.636C109.799 32.5654 114.538 38.9254 113.457 46.4268C110.664 65.806 88.8095 69.9208 75.0752 69.4364C75.134 70.7965 78.2894 97.661 70.2072 107.021C58.3363 120.767 41.7131 112.189 41.4347 99.9632C41.1265 86.4262 54.3911 81.9199 57.4083 81.5589C62.8401 80.9089 63.8607 87.3684 58.7626 88.8177C52.0646 90.7219 50.0104 96.7764 51.3542 100.185C53.1888 104.838 60.9707 105.388 64.1487 98.7668C68.0099 90.7221 65.8849 71.2152 65.7627 68.7477C60.265 68.0696 42.7652 65.3836 39.2424 63.4904ZM74.5206 59.4203C84.6076 60.627 104.233 56.1274 103.175 44.3909C102.278 34.4362 75.4418 31.5943 74.5206 59.4203ZM101.02 89.7566C101.776 85.2557 108.561 85.0614 108.046 90.3657C106.823 102.979 104.305 114.039 101.428 122.86C99.0815 130.051 89.2727 126.122 92.0806 119.646C96.1544 110.251 99.1219 101.063 101.02 89.7566ZM88.2634 104.98C86.5842 109.732 80.0093 107.477 81.3702 102.889C83.2058 96.6994 83.0151 83.1746 82.9463 78.0309C82.8435 70.3581 94.6403 69.9637 93.7959 78.1983C93.141 84.5858 91.8586 94.8042 88.2634 104.98Z" fill="#FAEBD7"/>
</svg>
