<?xml version="1.0" encoding="utf-8"?>
<!-- Generator: Adobe Illustrator 19.0.0, SVG Export Plug-In . SVG Version: 6.00 Build 0)  -->
<svg version="1.1" id="Layer_1" xmlns="http://www.w3.org/2000/svg" xmlns:xlink="http://www.w3.org/1999/xlink" x="0px" y="0px"
	 viewBox="2308 47 200 200" style="enable-background:new 2308 47 200 200;" xml:space="preserve">
<path id="innobi" style="fill:#FBF5D5;" d="M2497.982,136.385c-0.142-1.256-1.275-2.163-2.531-2.021l-37.561,4.317
	c-0.319-1.031-0.688-2.046-1.109-3.039c-0.831-1.967-1.855-3.849-3.055-5.609s-2.573-3.4-4.089-4.891
	c-3.031-2.984-6.649-5.355-10.58-6.953c-1.516-0.621-3.08-1.117-4.672-1.495c-0.114-0.664-0.295-1.32-0.545-1.948
	c-0.469-1.194-1.178-2.296-2.075-3.225c-0.902-0.924-1.986-1.677-3.183-2.184c-1.196-0.508-2.5-0.764-3.795-0.76
	c-1.294,0.008-2.594,0.271-3.788,0.776c-1.195,0.505-2.28,1.255-3.182,2.176c-0.9,0.922-1.611,2.025-2.084,3.219
	c-0.411,1.036-0.638,2.14-0.677,3.245c-0.251,0.097-0.504,0.197-0.753,0.299c-1.266,0.528-2.494,1.144-3.684,1.826l-16.651-29.151
	c0-0.009-0.009-0.028-0.019-0.038c-0.642-1.086-2.05-1.445-3.135-0.793c-1.086,0.652-1.445,2.049-0.793,3.136l17.296,29.009
	c-1.232,0.92-2.4,1.924-3.49,3.01c-0.968,0.963-1.874,1.992-2.712,3.07c1.246,0.266,2.442,0.669,3.567,1.207
	c0.521-0.619,1.065-1.218,1.635-1.789c2.452-2.465,5.359-4.476,8.532-5.901c0.252-0.101,0.505-0.198,0.76-0.291
	c0.073,0.208,0.151,0.415,0.238,0.617c0.502,1.165,1.24,2.219,2.141,3.097c1.795,1.767,4.301,2.781,6.802,2.753
	c2.498-0.002,4.996-0.999,6.795-2.761c0.796-0.767,1.453-1.68,1.946-2.681c2.354,1.167,4.51,2.721,6.325,4.604
	c2.091,2.165,3.746,4.734,4.846,7.512c0.548,1.389,0.962,2.828,1.233,4.293c0.27,1.463,0.394,2.95,0.376,4.436l-0.005,0.3
	l-0.01,0.268c-0.006,0.183-0.015,0.371-0.026,0.555c-0.024,0.37-0.055,0.742-0.097,1.111c-0.081,0.737-0.198,1.469-0.351,2.195
	c-0.305,1.451-0.756,2.868-1.342,4.226c-0.584,1.356-1.305,2.652-2.131,3.873c-0.829,1.222-1.786,2.352-2.827,3.395
	c-2.091,2.076-4.569,3.767-7.285,4.918c-1.358,0.576-2.773,1.017-4.219,1.316c-1.447,0.299-2.924,0.456-4.409,0.475
	c-1.484,0.019-2.968-0.108-4.427-0.378c-1.459-0.272-2.892-0.685-4.274-1.233c-2.767-1.095-5.322-2.752-7.472-4.838
	c-0.631-0.613-1.227-1.264-1.784-1.945c-1.125,0.641-2.33,1.147-3.594,1.501c0.799,1.123,1.683,2.187,2.647,3.175
	c2.257,2.32,4.948,4.223,7.9,5.595l-1.392,4.027c-1.687-1.074-3.267-2.319-4.695-3.726c-2.534-2.488-4.6-5.457-6.049-8.709
	c-0.978,0.173-1.986,0.263-3.01,0.263c-0.372,0-0.74-0.012-1.107-0.036c0.097,0.257,0.196,0.515,0.3,0.769
	c1.602,3.94,3.99,7.562,6.982,10.599c1.847,1.876,3.926,3.525,6.174,4.906l-8.676,25.101c0,0.009-0.009,0.028-0.019,0.038
	c-0.387,1.199,0.274,2.493,1.473,2.881c1.209,0.397,2.493-0.264,2.89-1.464l7.987-24.625c0.233,0.105,0.463,0.216,0.698,0.316
	c1.969,0.835,4.024,1.472,6.124,1.894c1.05,0.213,2.11,0.374,3.175,0.482c0.532,0.055,1.066,0.096,1.6,0.126
	c0.268,0.013,0.534,0.025,0.803,0.032l0.412,0.009l0.374,0.004h0.415l0.401-0.005c0.268-0.004,0.535-0.013,0.804-0.026
	c0.535-0.022,1.068-0.058,1.602-0.107c1.067-0.099,2.129-0.251,3.183-0.452c2.106-0.408,4.175-1.022,6.162-1.835
	c1.986-0.815,3.898-1.817,5.684-3.014c1.785-1.193,3.454-2.564,4.973-4.08c2.009-2.014,3.741-4.3,5.156-6.766l13.207,7.438
	c0.009,0.009,0.038,0.019,0.047,0.028c1.124,0.595,2.503,0.17,3.098-0.954c0.595-1.114,0.16-2.503-0.954-3.088l-6.461-3.418
	c0.808-0.121,1.598-0.376,2.317-0.771c0.807-0.446,1.53-1.049,2.107-1.778c0.287-0.363,0.539-0.755,0.75-1.168
	c0.105-0.207,0.201-0.418,0.284-0.635c0.042-0.108,0.081-0.213,0.12-0.326l0.056-0.178l0.04-0.135l0.006-0.016
	c0.246-0.888,0.319-1.833,0.205-2.753c-0.115-0.921-0.418-1.813-0.876-2.613c-0.46-0.799-1.082-1.503-1.812-2.058
	c-0.366-0.281-0.759-0.523-1.171-0.725c-0.205-0.101-0.417-0.19-0.631-0.27c-0.107-0.04-0.214-0.076-0.325-0.112l-0.176-0.052
	l-0.135-0.037l-0.18-0.046l-0.166-0.038c-0.112-0.025-0.224-0.045-0.336-0.063c-0.225-0.037-0.451-0.063-0.678-0.077
	c-0.455-0.029-0.913-0.015-1.363,0.048c-0.901,0.121-1.771,0.424-2.554,0.874c-0.095,0.055-0.189,0.114-0.282,0.171
	c0.018-0.162,0.035-0.324,0.051-0.489c0.048-0.531,0.084-1.065,0.106-1.599c0.011-0.268,0.018-0.534,0.024-0.803l0.005-0.411v-0.376
	v-0.013c-0.012-1.858-0.192-3.715-0.519-5.545l37.107-3.659h0.038C2497.227,138.775,2498.133,137.642,2497.982,136.385z
	 M2418.327,115.822c0.367-0.837,0.906-1.595,1.558-2.226c1.309-1.272,3.098-1.989,4.903-1.966c0.904,0.002,1.798,0.178,2.633,0.514
	c0.834,0.332,1.611,0.827,2.264,1.458c0.659,0.625,1.197,1.381,1.567,2.219c0.044,0.099,0.087,0.204,0.126,0.306
	c-1.564-0.218-3.141-0.323-4.719-0.313c-2.949,0.007-5.898,0.424-8.737,1.225C2418.021,116.622,2418.155,116.213,2418.327,115.822z
	 M2427.556,125.179c-0.87,0.373-1.816,0.558-2.767,0.556c-0.95-0.009-1.892-0.203-2.76-0.573c-0.869-0.368-1.656-0.919-2.311-1.591
	c-0.655-0.677-1.165-1.484-1.503-2.35c-0.049-0.126-0.088-0.254-0.129-0.382c0.324-0.077,0.649-0.15,0.976-0.212
	c1.496-0.286,3.019-0.422,4.544-0.413c2.592,0.026,5.17,0.49,7.592,1.372c-0.329,0.727-0.775,1.406-1.331,1.991
	C2429.212,124.253,2428.425,124.805,2427.556,125.179z M2442.436,124.634c-0.474-0.461-0.97-0.897-1.477-1.32
	c2.157,1.273,4.147,2.825,5.897,4.61c2.617,2.673,4.704,5.853,6.104,9.303c0.259,0.638,0.486,1.287,0.697,1.941l-3.472,0.399
	c-0.342-2.186-0.951-4.329-1.83-6.354C2446.97,129.987,2444.94,127.057,2442.436,124.634z M2450.154,163.817
	c-1.033,1.532-2.225,2.958-3.531,4.268c-2.612,2.615-5.741,4.713-9.146,6.154c-1.704,0.716-3.48,1.266-5.295,1.636
	c-0.906,0.184-1.824,0.325-2.745,0.419c-0.462,0.049-0.924,0.084-1.386,0.109c-0.233,0.011-0.464,0.023-0.696,0.028l-0.348,0.01
	l-0.335,0.004h-0.374l-0.337-0.007c-0.229-0.003-0.462-0.009-0.694-0.019c-0.464-0.019-0.927-0.051-1.39-0.094
	c-0.923-0.086-1.843-0.216-2.754-0.39c-1.822-0.352-3.611-0.879-5.333-1.575c-0.341-0.138-0.677-0.288-1.013-0.439l1.483-4.572
	c2.381,0.702,4.863,1.074,7.346,1.097c3.527,0.045,7.079-0.637,10.36-1.972c3.286-1.333,6.307-3.328,8.807-5.846
	c1.034-1.043,1.977-2.175,2.826-3.373l5.479,3.086C2450.783,162.84,2450.478,163.335,2450.154,163.817z M2459.227,154.828
	c0.372-0.466,0.843-0.856,1.366-1.143c0.524-0.285,1.105-0.456,1.691-0.514c0.293-0.029,0.59-0.029,0.882,0
	c0.146,0.014,0.292,0.037,0.435,0.067c0.072,0.013,0.144,0.031,0.215,0.047l0.107,0.029l0.09,0.026l0.134,0.043l0.091,0.03
	c0.067,0.024,0.138,0.05,0.205,0.079c0.134,0.056,0.267,0.119,0.395,0.188c0.257,0.138,0.499,0.299,0.723,0.484
	c0.447,0.367,0.819,0.826,1.094,1.333c0.552,1.016,0.691,2.228,0.373,3.332l-0.034,0.118l-0.028,0.091
	c-0.022,0.065-0.046,0.135-0.071,0.202c-0.052,0.133-0.11,0.264-0.173,0.392c-0.128,0.255-0.281,0.499-0.456,0.724
	c-0.35,0.451-0.788,0.84-1.287,1.13c-0.499,0.29-1.053,0.489-1.627,0.571c-0.286,0.042-0.579,0.053-0.868,0.037
	c-0.145-0.008-0.291-0.024-0.436-0.046c-0.072-0.011-0.144-0.025-0.216-0.039l-0.199-0.045l-0.136-0.04l-0.093-0.025
	c-0.068-0.022-0.139-0.046-0.207-0.071c-0.139-0.05-0.274-0.108-0.407-0.169c-0.264-0.128-0.517-0.281-0.753-0.457
	c-0.47-0.355-0.878-0.804-1.177-1.32c-0.299-0.516-0.5-1.093-0.574-1.685c-0.037-0.297-0.045-0.596-0.024-0.894
	c0.012-0.149,0.03-0.299,0.055-0.447c0.013-0.073,0.027-0.147,0.045-0.219l0.026-0.111l0.024-0.095l0.041-0.133l0.031-0.097
	c0.023-0.07,0.05-0.142,0.078-0.21c0.055-0.141,0.116-0.277,0.184-0.41C2458.879,155.315,2459.041,155.063,2459.227,154.828z
	 M2455.029,148.118l-0.005,0.361l-0.009,0.339c-0.008,0.23-0.017,0.463-0.029,0.695c-0.027,0.464-0.064,0.927-0.112,1.388
	c-0.097,0.923-0.239,1.841-0.425,2.748c-0.357,1.736-0.881,3.432-1.555,5.065l-5.28-2.793c0.351-0.691,0.676-1.395,0.963-2.116
	c0.658-1.641,1.153-3.348,1.477-5.084c0.162-0.868,0.281-1.744,0.357-2.621c0.038-0.439,0.064-0.877,0.081-1.319
	c0.008-0.219,0.013-0.439,0.017-0.66l0.002-0.342l-0.002-0.303v-0.013c0-0.022-0.002-0.045-0.002-0.067l4.095-0.404
	C2454.896,144.683,2455.044,146.4,2455.029,148.118z M2402.431,132.268c0.057,0.019,0.123,0.047,0.189,0.076v-0.009
	C2402.554,132.305,2402.498,132.286,2402.431,132.268z M2384.485,143.973v-0.071c0-7,5.401-12.863,13.041-12.863
	c7.641,0,12.97,5.792,12.97,12.792v0.07c0,7.002-5.401,12.865-13.041,12.865C2389.814,156.767,2384.485,150.974,2384.485,143.973z
	 M2405.912,143.973v-0.071c0-4.832-3.518-8.848-8.457-8.848c-4.939,0-8.387,3.945-8.387,8.778v0.07c0,4.833,3.518,8.849,8.457,8.849
	C2402.466,152.751,2405.912,148.807,2405.912,143.973z M2327.999,131.466h4.371v24.874h-4.371V131.466z M2335.592,131.466h4.051
	l13.325,17.197v-17.197h4.3v24.874h-3.662l-13.715-17.697v17.697h-4.3V131.466z M2360.684,131.466h4.05l13.327,17.197v-17.197h4.301
	v24.874h-3.662l-13.717-17.697v17.697h-4.299V131.466z M2412.696,131.466h8.868c2.843,0,5.082,0.782,6.502,2.204
	c1.103,1.1,1.672,2.449,1.672,4.122v0.07c0,2.985-1.706,4.584-3.555,5.543c2.915,0.997,4.941,2.665,4.941,6.042v0.071
	c0,4.441-3.661,6.822-9.204,6.822h-9.224V131.466z M2420.675,141.947c2.809,0,4.692-1.1,4.692-3.375V138.5
	c0-1.954-1.564-3.162-4.371-3.162h-4v6.609H2420.675z M2421.955,152.466c2.985,0,4.797-1.174,4.797-3.412v-0.071
	c0-2.094-1.671-3.34-5.118-3.34h-4.639v6.823H2421.955z M2433.063,131.466h4.371v24.874h-4.371V131.466z"/>
</svg>
