<?xml version="1.0" encoding="utf-8"?>
<!-- Generator: Adobe Illustrator 19.0.0, SVG Export Plug-In . SVG Version: 6.00 Build 0)  -->
<svg version="1.1" id="Layer_1" xmlns="http://www.w3.org/2000/svg" xmlns:xlink="http://www.w3.org/1999/xlink" x="0px" y="0px"
	 viewBox="2308 47 200 200" style="enable-background:new 2308 47 200 200;" xml:space="preserve">
<g id="pumpic">
	<path id="type" style="fill:#FBF5D5;" d="M2459.527,186.899c-2.858,0-5.176-2.313-5.176-5.171c0-2.858,2.318-5.176,5.176-5.176
		c2.857,0,5.173,2.318,5.173,5.176C2464.7,184.586,2462.384,186.899,2459.527,186.899z M2335.179,225.195v-13.617
		c2.078,2.575,5.098,3.466,7.672,3.466c7.179,0,12.179-4.801,12.179-12.724c0-7.623-4.901-12.673-12.078-12.673
		c-3.069,0-5.842,0.646-8.118,3.565l-0.446-3.206H2328v35.188L2335.179,225.195L2335.179,225.195z M2341.862,208.609
		c-3.267,0-6.585-2.179-6.585-6.289c0-4.65,3.368-6.288,6.585-6.288c3.811,0,5.991,2.777,5.991,6.288
		C2347.853,205.984,2345.526,208.609,2341.862,208.609z M2356.862,190.007v13.008c0,9.505,4.705,11.98,10.199,11.98
		c2.968,0.049,5.742-0.794,7.92-3.713l0.248,3.215h6.435v-24.492h-7.03v12.662c0,3.166-2.228,6.041-5.543,5.99
		c-3.418,0-5.049-1.931-5.049-5.694v-12.958H2356.862z M2408.001,214.498v-13.116c0-2.775,1.684-5.201,4.504-5.201
		c2.873,0,3.713,2.031,3.713,5.104v13.213h7.179v-13.367c0-9.107-4.654-11.681-9.753-11.681c-3.614,0-5.941,1.286-8.118,4.604
		c-1.585-3.564-4.455-4.555-7.13-4.555c-2.078,0-4.9,0.645-6.434,3.318l-0.496-2.771h-6.237v24.452h7.13v-13.067
		c0-2.775,1.583-5.399,4.406-5.399c2.918,0,4.208,2.13,4.208,5.35v13.116L2408.001,214.498L2408.001,214.498z M2433.793,225.291
		v-13.713c2.078,2.575,5.099,3.466,7.673,3.466c7.178,0,12.178-4.801,12.178-12.724c0-7.623-4.9-12.673-12.079-12.673
		c-3.069,0-5.84,0.646-8.118,3.565l-0.447-3.206h-6.384v35.284H2433.793z M2440.476,208.609c-3.268,0-6.583-2.179-6.583-6.289
		c0-4.65,3.365-6.288,6.583-6.288c3.813,0,5.99,2.777,5.99,6.288C2446.466,205.984,2444.139,208.609,2440.476,208.609z
		 M2462.953,189.66v24.839h-7.131V189.66H2462.953z M2483.495,206.628c-1.188,1.189-3.365,1.831-4.95,1.831
		c-3.315,0-6.285-2.224-6.285-6.139c0-4.059,2.87-6.385,6.433-6.385c1.488,0,3.119,0.299,4.605,1.435l3.96-4.503
		c-2.475-2.574-5.295-3.368-8.86-3.368c-7.13,0-13.318,4.605-13.318,12.82c0,8.814,6.238,12.724,13.368,12.724
		c3.118,0,6.633-0.891,9.553-3.761L2483.495,206.628z"/>
	<path id="icon" style="fill:#FBF5D5;" d="M2428.894,126.288h21.753v27.722c0,7.034-5.755,12.793-12.794,12.793h-59.706
		c-7.039,0-12.795-5.759-12.795-12.793v-27.722h21.75c-0.281,1.377-0.429,2.799-0.429,4.26c0,11.777,9.549,21.331,21.325,21.331
		c11.782,0,21.325-9.554,21.325-21.331C2429.324,129.087,2429.176,127.665,2428.894,126.288z M2450.648,107.092v13.507h-23.787
		c-3.577-6.762-10.678-11.375-18.862-11.375c-8.183,0-15.281,4.612-18.858,11.375h-23.789v-13.507
		c0-7.041,5.756-12.791,12.795-12.791h12.792v-2.132c0-2.349,1.922-4.272,4.263-4.272h8.53V77.242h-8.53
		c-2.341,0-4.263-1.924-4.263-4.272c0-2.347,1.922-4.261,4.263-4.261h25.589c2.347,0,4.267,1.915,4.267,4.261
		c0,2.348-1.92,4.272-4.267,4.272h-8.528v10.655h8.528c2.347,0,4.267,1.923,4.267,4.272v2.132h12.794
		C2444.893,94.301,2450.648,100.051,2450.648,107.092z M2442.832,107.092c0-3.92-3.189-7.102-7.109-7.102
		c-3.92,0-7.109,3.182-7.109,7.102c0,3.921,3.189,7.112,7.109,7.112C2439.643,114.204,2442.832,111.013,2442.832,107.092z
		 M2418.664,130.548c0-5.888-4.779-10.655-10.666-10.655c-5.889,0-10.661,4.767-10.661,10.655c0,5.887,4.772,10.664,10.661,10.664
		C2413.885,141.212,2418.664,136.434,2418.664,130.548z"/>
</g>
</svg>
