<svg xmlns="http://www.w3.org/2000/svg" id="Layer_1" viewBox="0 0 128 128">
  <path fill="#FBF5D5" d="M43.22 42.91c0 2.05-1.66 3.71-3.71 3.71s-3.71-1.66-3.71-3.71 1.66-3.71 3.71-3.71 3.71 1.66 3.71 3.71zm1.35 28.96V54.86c0-1.09-.55-2.1-1.45-2.7l-3.26-2.18c-1.5-1-3.51-.59-4.51.9-.99 1.49-.59 3.51.9 4.5l1.82 1.22v15.28c0 1.79 1.46 3.25 3.25 3.25 1.8-.01 3.25-1.46 3.25-3.26zm31.41-6.24c-1.79 0-3.25-1.45-3.25-3.25V56.6l-1.82-1.22c-1.49-1-1.89-3.01-.9-4.5 1-1.49 3.01-1.89 4.51-.9l3.26 2.18c.9.61 1.45 1.62 1.45 2.7v7.52c0 1.79-1.45 3.25-3.25 3.25zm12.6 8.76c-.68 0-1.35-.22-1.91-.62-.71-.52-1.18-1.3-1.3-2.17l-2.14-14.96c-1.54-.26-2.71-1.59-2.71-3.2 0-1.79 1.46-3.25 3.25-3.25h16.98c1.8 0 3.25 1.45 3.25 3.25v15.61c0 1.58-1.14 2.93-2.7 3.2l-12.17 2.09c-.18.04-.36.05-.55.05zm1.22-17.7l1.53 10.68 6.18-1.06v-9.62H89.8zM51.38 73.53c-1.69 0-3.11-1.3-3.23-3l-1.99-26.32c-.14-1.79 1.21-3.35 3-3.48 1.79-.14 3.35 1.21 3.48 2.99l1.74 23.13 6.23-.38.78-9.78h-1.53c-1.8 0-3.25-1.46-3.25-3.25s1.45-3.25 3.25-3.25h5.04c.91 0 1.77.38 2.39 1.04.61.67.92 1.56.85 2.46l-1.28 16.1c-.13 1.61-1.43 2.89-3.04 2.98l-12.24.74c-.07.02-.14.02-.2.02zM30.52 82.8c-1.79 0-3.25-1.46-3.25-3.25V56.78l-1.83-1.22c-1.49-1-1.89-3.01-.9-4.5 1-1.49 3.01-1.89 4.51-.9l3.27 2.18c.9.6 1.44 1.61 1.44 2.7v24.51c0 1.79-1.45 3.25-3.24 3.25z"/>
</svg>