<?xml version="1.0" encoding="utf-8"?>
<!-- Generator: Adobe Illustrator 15.0.0, SVG Export Plug-In . SVG Version: 6.00 Build 0)  -->
<!DOCTYPE svg PUBLIC "-//W3C//DTD SVG 1.1//EN" "http://www.w3.org/Graphics/SVG/1.1/DTD/svg11.dtd">
<svg version="1.1" id="Layer_1" xmlns="http://www.w3.org/2000/svg" xmlns:xlink="http://www.w3.org/1999/xlink" x="0px" y="0px"
	 width="2800px" height="2800px" viewBox="-1260 -1260 2800 2800" enable-background="new -1260 -1260 2800 2800"
	 xml:space="preserve">
<path id="shadow" opacity="0.1" fill="#7A6831" d="M-961.627,436.578V-92.778h177.822c92.38,0,138.609,48.092,138.609,144.217
	V292.34c0,96.169-47.233,144.238-141.635,144.238H-961.627z M-704.102,51.438c0-55.88-26.427-83.806-79.297-83.806h-119.316v408.542
	h117.818c53.844,0,80.795-27.97,80.795-83.835V51.438z M-322.751,436.578l-27.947-104.968h-177.443l-26.442,104.968h-58.135
	l140.464-529.356h67.945L-259.3,436.578H-322.751z M-439.791-11.227l-75.523,293.007h151.772L-439.791-11.227z M-103.725,436.578
	c-84.591,0-126.886-43.022-126.886-129.142V-92.778h58.913v400.215c0,45.815,22.159,68.738,66.447,68.738h74.788
	c43.786,0,65.683-22.923,65.683-68.738V-92.778h58.898v400.215c0,86.119-42.303,129.142-126.879,129.142H-103.725z M1123.479-8.936
	c0,263.198-213.396,476.595-476.596,476.595c-263.227,0-476.596-213.397-476.596-476.595c0-263.213,213.369-476.588,476.596-476.588
	C910.082-485.524,1123.479-272.149,1123.479-8.936z M625.794,211.297v-432.656h-63.269V74.695c0,24.18-4.523,42.172-13.498,53.989
	c-9.018,11.832-24.464,17.715-46.396,17.715h-99.543c-34.296,0-51.43-23.613-51.43-70.868v-296.891h-62.411V78.928
	c0,88.277,32.595,132.369,97.842,132.369h87.703c24.755,0,43.866-3.76,57.364-11.344c13.497-7.586,24.173-21.214,32.056-40.922
	v52.266H625.794z M898.649,211.297c84.358,0,126.509-45.196,126.509-135.766V-54.344c0-55.669-9.163-97.434-27.432-125.265
	c-18.268-27.838-51.313-41.75-99.077-41.75H696.219v567.645h63.239V211.297H898.649z M961.904,73.852
	c0,48.354-21.657,72.548-64.957,72.548H759.458v-301.974h137.489c25.293,0,42.456,7.6,51.444,22.792
	c8.974,15.17,13.513,37.088,13.513,65.785V73.852z"/>
<path id="logo-2" fill="#7A6831" d="M-902.053,436.578V-92.778h177.822c92.379,0,138.609,48.092,138.609,144.217V292.34
	c0,96.169-47.233,144.238-141.635,144.238H-902.053z M-644.527,51.438c0-55.88-26.428-83.806-79.297-83.806H-843.14v408.542h117.818
	c53.844,0,80.795-27.97,80.795-83.835V51.438z M-263.176,436.578l-27.947-104.968h-177.443l-26.442,104.968h-58.134L-412.68-92.778
	h67.945l145.009,529.356H-263.176z M-380.216-11.227l-75.522,293.007h151.772L-380.216-11.227z M-44.15,436.578
	c-84.591,0-126.887-43.022-126.887-129.142V-92.778h58.913v400.215c0,45.815,22.159,68.738,66.447,68.738h74.788
	c43.787,0,65.683-22.923,65.683-68.738V-92.778h58.898v400.215c0,86.119-42.303,129.142-126.879,129.142H-44.15z"/>
<path id="logo-1" fill="#FBF5D5" d="M1183.054-8.936c0,263.198-213.397,476.595-476.596,476.595
	c-263.228,0-476.596-213.397-476.596-476.595c0-263.213,213.368-476.588,476.596-476.588
	C969.656-485.524,1183.054-272.149,1183.054-8.936z M685.368,211.297v-432.656H622.1V74.695c0,24.18-4.523,42.172-13.498,53.989
	c-9.018,11.832-24.463,17.715-46.396,17.715h-99.543c-34.296,0-51.43-23.613-51.43-70.868v-296.891h-62.41V78.928
	c0,88.277,32.594,132.369,97.841,132.369h87.704c24.754,0,43.866-3.76,57.363-11.344c13.497-7.586,24.173-21.214,32.057-40.922
	v52.266H685.368z M958.224,211.297c84.358,0,126.509-45.196,126.509-135.766V-54.344c0-55.669-9.163-97.434-27.431-125.265
	c-18.269-27.838-51.313-41.75-99.078-41.75H755.793v567.645h63.24V211.297H958.224z M1021.479,73.852
	c0,48.354-21.657,72.548-64.956,72.548H819.033v-301.974h137.489c25.293,0,42.455,7.6,51.444,22.792
	c8.974,15.17,13.512,37.088,13.512,65.785V73.852z"/>
</svg>
