<svg xmlns="http://www.w3.org/2000/svg" id="Layer_1" viewBox="0 0 128 128">
  <path id="peace" fill="#FBF5D5" d="M25.53,48.45c0-0.44,0-0.88,0-1.32c0.49-1.32,0.94-2.65,1.49-3.95c0.33-0.77,0.89-0.98,1.49-0.2
	c0.54,0.71,1.25,0.9,2.12,0.9c3.51-0.03,7.02-0.02,10.53-0.01c2.26,0,3.15,0.72,3.18,2.95c0.08,5.37,0.1,10.74,0.01,16.11
	c-0.05,2.86-1.72,4.37-4.63,4.42c-2.78,0.05-5.56,0.03-8.33,0c-0.84-0.01-1.68-0.09-2.51-0.22c-1.41-0.22-1.9-0.7-2-2.15
	c-0.19-2.77-0.29-5.54-0.43-8.31c-0.09-1.91,0.23-3.71,1.37-5.3c0.48-0.66,0.18-0.99-0.41-1.38C26.73,49.56,26.15,48.97,25.53,48.45
	z M35.85,50.84c0,0.03,0,0.06,0,0.09c-1.49,0-2.99-0.02-4.48,0.01c-0.96,0.02-1.84,0.42-1.86,1.47c-0.03,2.06,0,4.15,0.27,6.18
	c0.09,0.64,1.03,1.61,1.63,1.64c2.89,0.17,5.8,0.13,8.7,0.05c0.84-0.02,1.56-0.66,1.62-1.55c0.14-2.07,0.24-4.15,0.17-6.21
	c-0.04-1.2-0.73-1.65-2-1.67C38.55,50.82,37.2,50.84,35.85,50.84z M59.53,26.29c-1.02,1.67-1.72,3.46-1.78,5.42
	c-0.02,0.55,0.22,1.33,0.62,1.63c0.85,0.65,1.01,1.39,0.99,2.37c-0.1,3.65-0.24,7.3-0.17,10.94c0.06,2.98,1.59,4.26,4.33,4.14
	c2.66-0.12,5.33-0.12,7.99-0.15c0.86-0.01,1.57,0.25,1.91,1.15c0.35,0.95,0.78,1.78,0.05,2.86c-2.04,2.97-3.97,6.02-5.89,9.08
	c-0.44,0.7-0.75,1.51-0.96,2.3c-0.2,0.75,0.28,1.08,0.94,0.74c0.6-0.31,1.22-0.72,1.64-1.24c2.4-2.94,4.78-5.9,7.07-8.93
	c0.51-0.67,0.91-1.71,0.81-2.51c-0.36-2.81-0.86-5.62-1.49-8.38c-0.37-1.62-1.14-2.03-2.79-2.04c-2.92-0.01-5.84,0.02-8.77-0.02
	c-1.63-0.02-2.31-0.62-2.68-2.19c-0.12-0.49-0.25-1.02-0.2-1.51c0.28-3.12,0.58-6.23,0.94-9.34c0.15-1.32,0.26-2.54-1.16-3.32
	c-0.39-0.21-0.64-0.67-0.95-1.02C59.82,26.29,59.68,26.29,59.53,26.29z M49.66,42.75c-1.36,1.37-1.96,3.13-2.38,4.94
	c-0.19,0.83,0.22,1.49,0.98,1.9c0.86,0.47,1.7,1,2.6,1.4c1.53,0.68,2.1,1.85,2.14,3.47c0.09,3.9,0.25,7.8,0.41,11.7
	c0.02,0.39,0.17,0.77,0.28,1.26c1.36-0.7,2.07-1.63,2.07-2.94c0.02-5.29-0.01-10.58-0.02-15.87c0-1.84-0.69-3.18-2.5-3.95
	c-1.11-0.47-2.09-1.26-3.14-1.9C49.95,42.75,49.81,42.75,49.66,42.75z M84.78,58.89c-0.47-2.21-0.94-4.42-1.36-6.64
	c-0.17-0.88,0.28-1.13,1.15-1.08c0.55,0.04,1.46-0.07,1.62-0.39c0.68-1.43,1.21-2.94,1.68-4.46c0.26-0.84-0.22-1.44-1.02-1.82
	c-1.25-0.6-2.51-1.19-3.68-1.92c-0.69-0.43-1.1-0.28-1.44,0.3c-0.58,0.97-1.18,1.94-1.64,2.97c-0.75,1.68-0.55,2.38,0.96,3.41
	c0.84,0.57,0.82,1.13,0.52,2.03c-0.35,1.07-0.85,1.25-0.48,3.37c0.66,3.81,1.48,7.58,2.28,11.36c0.28,1.31,0.6,1.54,1.92,1.24
	c3.27-0.73,6.53-1.52,9.79-2.3c1.34-0.32,2.26-1.16,2.76-2.44c0.5-1.29,0.98-2.59,1.39-3.91c0.91-2.95,1.53-5.86,4.29-7.7
	c0.15-0.1,0.32-0.25,0.36-0.4c0.25-0.92,1.25-1.79,0.91-2.76c-0.7-1.83-1.83-3.49-2.9-5.45c-1.09,1.09-2.11,2.01-3.01,3.04
	c-1.56,1.78-1.55,2.61-0.2,4.55c0.39,0.56,1.04,1.29,0.92,1.78c-0.52,2.08-1.93,4.82-3.19,5.36c-2.47,1.11-5.16,1.73-7.79,2.46
	c-0.92,0.26-1.28-0.21-0.91-1.1c1.02-2.42,1.98-4.96,3.07-7.35c0.3-0.65,0.83-0.78,1.46-0.43c0.22,0.12,0.43,0.27,0.65,0.41
	c1.25,0.76,1.76,0.63,2.37-0.73c0.39-0.86,0.72-1.76,0.99-2.66c0.57-1.97,0.34-2.54-1.34-3.65c-0.24-0.16-0.49-0.32-0.73-0.49
	c-2.32-1.67-2.43-1.63-3.39,1.08c-1.54,4.33-2.94,8.81-4.5,13.13c-0.22,0.59-0.55,1.15-0.93,1.94
	C85.03,59.22,84.82,59.07,84.78,58.89z"/>
  <path id="now" fill="#FBF5D5" d="M30.31,91.71H25V73.48h5.31V91.71z M38.26,81.16h-5.31v-7.67h5.31V81.16z M63.53,86.56l-4.11,5.15
	h-18.5V73.48h5.31V86.4h3.35V73.48h5.31V86.4h2.37l0.98-1.2V73.48h5.31V86.56z M84.47,86.81l-4.26,4.9H66.25V86.4h11.31l1.61-1.61
	v-6H66.25v-5.31h18.22V86.81z M105,86.62l-4.61,5.08H87.06V86.4h2.68V73.48h5.31V86.4h3.03l1.61-1.77V73.48H105V86.62z"/>
</svg>