<svg xmlns="http://www.w3.org/2000/svg" id="Layer_1" viewBox="0 0 128 128">
  <path fill="#FBF5D5" d="M32.01 61.27l3.9-4.04c1.39 1.43 2.93 2.65 5.01 2.65 2.4 0 3.94-1.5 3.94-3.58 0-1.9-1.61-3.47-3.65-3.47-1.65 0-2.61.86-3.36 1.64l-4.58-2.04 2.18-12.3h14.17v5.33H40l-.61 3.47c.71-.47 2.11-.86 3.86-.86 4.18 0 8.33 2.93 8.33 8.48 0 6.01-5.51 9.05-10.7 9.05-3.61 0-7.4-2.11-8.87-4.33zm21.42-8.76c0-7.58 4.15-12.84 10.09-12.84 7.01 0 10.27 5.19 10.27 13.09 0 7.94-3.61 12.81-10.09 12.81-5.98-.01-10.27-4.26-10.27-13.06zm13.16.25c0-4.26-1.36-7.33-3.11-7.33-1.32-.04-2.97 2.72-2.97 7.08 0 4.61 1.75 7.51 3.18 7.51 1.65 0 2.9-2.9 2.9-7.26zm9.05-.25c0-7.58 4.15-12.84 10.09-12.84 7.01 0 10.27 5.19 10.27 13.09 0 7.94-3.61 12.81-10.09 12.81-5.98-.01-10.27-4.26-10.27-13.06zm13.16.25c0-4.26-1.36-7.33-3.11-7.33-1.32-.04-2.97 2.72-2.97 7.08 0 4.61 1.75 7.51 3.18 7.51 1.65 0 2.9-2.9 2.9-7.26z"/>
  <path fill="#FBF5D5" d="M49.58 69.55v6.81h-3.85v-3.35h-2.2v11.37h2.17v3.48h-9.74v-3.48h2.15V73.01h-2.25v3.35H32v-6.81h17.58zm13.48 16.5c-1.94 1.68-4.03 2.28-6.76 2.28-3.25 0-6.92-2.07-6.92-7.1 0-4.3 3.09-6.84 7.05-6.84 3.12 0 5.5 1.6 6.26 3.8.31.92.6 2.93.05 4.43H54.5c.16.71.5 2.15 2.7 2.15.89 0 2.25-.08 3.67-1.26l2.19 2.54zm-8.49-6.02h3.96c-.03-1-.26-2.1-1.94-2.1-1.6 0-1.96 1.44-2.02 2.1zm17.52-2.1c-1.55 0-2.3 1.65-2.3 3.35 0 1.7 1.02 3.06 2.7 3.09 1.39.02 2.31-.55 3.17-1.49l2.31 2.67c-1.23 1.34-3.59 2.67-6.42 2.67-3.85 0-7.2-2.33-7.2-6.99 0-4.64 3.09-6.71 6.44-6.71 1.78 0 2.83.97 3.28 1.49l.44-1.26h3.09v5.92h-3.85c-.06-1.24-.45-2.74-1.66-2.74zm15.87 9.93h-8.23v-3.43h1.1V71.62h-1.1v-3.41h6.34v8.17c.29-.47 2.2-2.1 4.11-2.1 4.06 0 4.58 3.01 4.58 5.76v4.37H96v3.43h-6.73v-7.13c0-.89 0-2.44-1.55-2.44-1.34 0-1.65 1.31-1.65 2.44v3.69h1.89v3.46z"/>
</svg>