<svg xmlns="http://www.w3.org/2000/svg" id="svg5349" viewBox="207 -62.46 1280 1280">
  <polygon id="skull" fill="#009FE3" points="907.2 1134.29 906.2 1134.09 809.3 1094.79 808.6 1094.39 719.6 1026.09 639 1001.69 637.6 1000.89 616.5 979.79 575.3 961.69 527.5 925.89 526.6 924.99 471.6 835.89 471.1 834.69 460.6 775.49 460.6 665.99 463.7 647.99 451.7 612.39 402.8 566.19 402.3 565.49 376.3 521.49 375.8 519.79 375.8 498.29 376.8 495.89 394.8 477.89 398.1 456.39 397.9 456.39 395.5 455.39 381 440.89 380.4 440.09 360.1 400.39 359.7 398.79 365.8 310.99 366.2 309.79 386 268.79 386.6 267.89 398.4 256.19 407.7 213.69 408.6 212.09 430.8 188.49 469.7 162.59 492.7 124.79 508.9 106.59 583.7 43.59 585.2 42.69 619.6 34.89 658.7 20.09 659.9 19.89 682.1 19.89 718.3 10.39 719.4 10.29 778.1 15.59 779 15.79 840 38.49 871.5 49.89 1091.7 178.59 1167.4 208.69 1222.7 219.09 1223.8 219.49 1249.5 233.69 1250.8 234.89 1268.6 265.09 1287.9 320.29 1287.9 320.29 1296.8 347.79 1312.5 507.19 1308.1 562.89 1307.1 564.99 1297 575.09 1296.1 575.79 1243.2 601.19 1212.9 631.39 1210.3 641.19 1228.9 671.09 1258.3 700.49 1298 765.59 1306.9 785.59 1308.4 785.19 1313.1 773.19 1316.3 770.89 1327.1 770.89 1330.7 774.29 1334.2 831.29 1334.3 831.39 1334.3 832.29 1334.3 906.39 1334.2 907.29 1316.6 970.89 1315.7 972.29 1304.6 983.49 1302.2 984.49 1292.3 984.49 1289.9 983.49 1282.4 975.99 1281.5 974.09 1278.5 954.69 1273.2 961.59 1258.8 975.99 1237.7 990.79 1210.8 1036.29 1210.8 1043.29 1210.2 1045.29 1182.8 1083.69 1180 1085.09 1175.7 1085.09 1147.3 1113.59 1146.3 1114.29 1135.9 1118.79 1104.8 1138.19 1103 1138.69 1058.1 1138.69 1040.4 1144.59 1039.1 1144.79"/>
  <path id="mouth" fill="#F0F" d="M1167.7 893.89v21.7l8.1-7.3-6.9-13.4-.1-.2-.3-.9-.8.1zm7.8-49.7l-14 22.2 9.9 27.2 2.9 5.6 7.1 13.8h6.2l34.7-4.5 6-4.9-9.4-26.2c0-.1-12.4-21.4-12.4-21.4-.1-.1-2-2.1-2-2.1l-9.6-9.6h-19.4v-.1zm44.7 10.4l1.5 21.7c0 .1.1.3.1.3l9.3 26.1 8.9 1.9 29.6-14.6v-20l-12.7-21.2-1.2-1.2-10.9-10.9-24.6 17.9zm29.7 48.5l.2.7 4.3-.4c.6 0 1.1.2 1.4.5l.2.4c0 .1.1.5.1.5 0 .1-.1.5-.1.5l-9.2 30.7 9.3-9.3c.1-.1 2-4.5 2-4.5l2.9-6.5 7.5-21.8-18.6 9.2zm20.4-74.6l-10.5 19.3 12.6 21 .2.8v20.3l15.5 6.4h.1l5.6-1.6-7.4-56.7-9.4-9.4h-6.7v-.1zm-447.4-16.7l4.7 13.8v.2l4.9 22.2 22.8-1.8v-16.6l.1-.6 5.2-11.8-31.4-19.3-6.3 13.9zm94.3 20.6l-5.2 15.7v13.7l10.4 15 14.9 8.8 8.9-8.2-2-16.6v-.5l2.9-18.4-22.1-9.4-7.8-.1zm43.2 73l-5.3-5.3 13-1.7 1.3-.9 8.6-14.3v32.6l-15.3-8.2-2.3-2.2zm-30-1.1l-.4.1-12.9-12.9.5-7.3 4-4 14.8 8.8 2.2-.2 7.8-7.2 2.6 15.9-18.6 6.8zm-31.8-28.1c-.3.3-.7.4-1.1.4h-7.9l5.3 14.7.1.2 6.1 6.1 12.6-6.3.5-7.9c0-.5.2-.8.4-1.1l4.6-4.6-9.1-13.2-11.5 11.7zm159 45.9l8.4 7.1-2.3-26-.7-.1-5.4 19zm-224.4-71.2l3.9 22.5c0 .1.3.6.3.6l9.4 16.2 10.8-10.8-2.1-30.3-22.3 1.8zm212.4 113.5h15.4l8.4-15.1-3.1-15.9-9.7-8.3-11 39.3zm272.7-187.1l-4.8 12.5-.1.2-12 22.7v9.6c0 .3-.1.7-.3.9l-11.6 14.5 7.5 57.8v.5c0 .1-.1.4-.1.4 0 .1-.1.2-.1.2l-.3.3-.4.2-7.4 2.2c-.3.1-.7.1-1 0l-15.5-6.4-8.2 23.7c-.1.1-.2.4-.2.4 0 .1-4.3 9.8-4.3 9.8l14.3 8 15.5-10.2 15.9-24.4 15.5-29.7c0-.1 3.7-19 3.7-19l3.7-19.3c0-.1-3.3-54.6-3.3-54.6v-.3h-6.5zm-13.1 15.8l3.2-.9-10.2 19.2-.2.9v9.3l-10.3 12.9-8.2-8.2v-7.6l25.7-25.6zm-88.1 63.6l.8 12-7-12h6.2zm-27.9 59v9.6c0 .3-.1.6-.3.8l-9.1 12.9 14.4 14.4 24-24 2.9-17.8-31.9 4.1zm-22 4.4l-.3.2-16.3 9.1c-.5.3-1 .3-1.5 0l-4.7-2.9-.8 6.7 8.6 20.3h9.5l15.1-15.1c.1-.1 8.7-12.4 8.7-12.4l.8-1.1v-8.9h-5.7c-.6 0-1.1-.3-1.3-.8l-2.1-4.1-10 9zm-287.4-96.8l.1 9.8c0 .1-.1.7-.1.7l-5.6 13.4 3.3 7.2 11 19.3h8.5l12.1-12.1v-13.7l.1-.5 5.4-16.1-8.1-8h-26.7zm244.9 29.8l-7.9 8 2.6 19.9h3.9c.6 0 1.1.4 1.4.9l13.6 32.4c0 .1 2.6 3.6 2.6 3.6l3.5 4.9 5.6 3.5 14.8-8.3v-26.3c0-.1-4.5-15.5-4.5-15.5v-.2l-1.6-9-33.1-14.9-.9 1zm-95.7-2l-18.1 9.1-29.6 182.5 5.9 18.8 11.7-6.1 22.6-46.5 13.7-26.7 7.1-16.8 20.5-72.4v-.1l-3.3-41.8H1029zm65.7 2.9l18.7 42.1 23 35.7h4.4l1-7.5-6.1-8.4-.2-.3-13.3-31.7h-4.2c-.7 0-1.4-.5-1.5-1.3l-2.7-20.7h-9.6c-.4 0-.8-.2-1.1-.4l-7.9-8-.5.5zm-22.9-29.9l-6.1 1.5-3.3 24 3.5 43.3 3.5 39.4 3.2 16.5 21.6 21.6 25.6 7.9 14.3-44.9-23.1-35.9-.1-.2-22.8-51.2-13.8-22.5-.1-.2-2.4.7zm152.5 86.5l-3.1 18.9 10.1 10.1h11.3l9.9-33.1-12.2 1.1h-.4l-9.5-2-6.1 5zm99.2-39.4l-.1.4-15.6 30c-.1.1-16 24.6-16 24.6-.1.1-3.9 17.7-3.9 17.7l-2.9 10.9v.1l2.7 17.3 6 6h7.5l9.7-9.7 17.2-62.4v-54.2l-.7-.1c-.2-.1-3.9 19.4-3.9 19.4zm-342.2 47.8v100.9l.7.1 25.9-160-26.6-14.7v73.7zm-23.4-80l-7.8 3-.1.2-2.9 18.2v.3c0 .1 2.1 17 2.1 17l3.1 19.3 14.6-1.9 11.4-19v-32.3l-18.3-5.7-2.1.9zm-170.4-33.2l-2.4 23.1 17.9 10.7-2.3-9.2c0-.1-.1-.4-.1-.4 0-.1.1-.4.1-.4 0-.1.2-.5.2-.5l8.5-12.1.6-.5 9-4.3-8.4-7.1-18.9-6.4-4.2 7.1zm-1-19.3l5.6 9.4 18.1 6.2 3.4-14.7-19.9-24.2-7.2 23.3zm71.9 43.5v17l11.9 11.9 4.1-4.1-3.2-6.9-.1-.6.1-.6 5.8-13.7-.1-10-13.4-4.5-5.1 11.5zm-45.5-26.7l7.9 6.1 6.1-13.1-10.7-7-3.3 14zm47.7 76.1l17.7 17.7 13.5-5.7-5.7-15.6-.2-.3-10.2-18-4.5 4.5c-.3.3-.7.4-1.1.4s-.8-.2-1-.4l-10.6-10.6 2.1 28zm-78.1-128.3l2.8 26.5.7.1 5.5-17.5-4.3-13.8-4.7 4.7zm29.1 68l-7.9 11.2 3 12 .1.2 6.7 17.5 20.3 11.3-3.7-21.3-5.2-23.3c0-.1-4-11.8-4-11.8l-9.3 4.2z"/>
  <path id="eyes" fill="#F0F" d="M1214.1 302.69l-87 39.6v.1l-11.8 25.2v21l-8.5 37.6 38.8 88.8 17.9 5.5 28.3-8 14.9-14.9.3-.3 17-9.3 18-40.2c0-.1 11.8-55.8 11.8-55.8l11.6-54.9-5.4-14.5-.1-.2-19.7-19.7h-26.1zm-319.3 71.3h-69.2c-.1 0-30 11.1-30 11.1-.1 0-35.6 26-35.6 26l-27.4 18-6.6 14 7.7 56.6c0 .1 18.3 37.5 18.3 37.5l14.4 29.6 42.6 16.2h60.2l52.3-33.5 22.3-44.6c0-.1 13-57.2 13-57.2l.1-.2 14.8-35.6.3-.5 21.9-22-21.4-19.8-77.7 4.4z">
    <animate id="animate771" fill="freeze" values="0.08;1;0.08" calcMode="spline" keyTimes="0;0.5;1" keySplines=".25 0 .75 1;.25 0 .75 1" attributeName="opacity" begin="0s" repeatCount="indefinite" additive="replace" accumulate="none" attributeType="auto" dur="4s"/>
  </path>
</svg>
