<?xml version="1.0" encoding="utf-8"?>
<!-- Generator: Adobe Illustrator 19.0.0, SVG Export Plug-In . SVG Version: 6.00 Build 0)  -->
<svg version="1.1" id="Layer_1" xmlns="http://www.w3.org/2000/svg" xmlns:xlink="http://www.w3.org/1999/xlink" x="0px" y="0px"
	 viewBox="-306 113 170 70" style="enable-background:new -306 113 170 70;" xml:space="preserve">
<path id="matnas" style="fill:#1A1916;" d="M-277.329,137.683c0,2.391-1.939,4.328-4.33,4.328s-4.329-1.938-4.329-4.328
	s1.938-4.329,4.329-4.329S-277.329,135.292-277.329,137.683z M-281.659,157.024c5.341,0,10.176-2.165,13.676-5.665l5.666-6.163
	v-7.513c0-10.683-8.66-19.342-19.342-19.342C-292.34,118.341-301,127-301,137.683C-301,148.365-292.34,157.024-281.659,157.024z
	 M-262.551,174.912l20.098-21.862v-26.214c0-4.692-3.803-8.495-8.495-8.495c-4.69,0-8.494,3.803-8.494,8.495v19.592l-15.616,16.986
	c-3.175,3.454-2.949,8.828,0.505,12.004c1.631,1.5,3.691,2.24,5.746,2.24C-266.512,177.658-264.226,176.734-262.551,174.912z
	 M-197.716,149.493l-27.221-28.522c-2.397-2.511-6.082-3.312-9.305-2.021c-3.223,1.292-5.335,4.414-5.335,7.886v27.331l-8.578,9.197
	c-3.2,3.431-3.012,8.807,0.418,12.007c1.638,1.526,3.717,2.282,5.792,2.282c2.273,0,4.542-0.907,6.215-2.701l10.86-11.645
	c1.467-1.572,2.282-3.643,2.282-5.793v-9.476l12.583,13.185c3.239,3.393,8.616,3.519,12.011,0.279
	C-194.602,158.264-194.477,152.888-197.716,149.493z M-170.532,149.493l-27.223-28.522c-3.238-3.394-8.615-3.521-12.01-0.28
	c-3.394,3.239-3.52,8.616-0.28,12.01l27.223,28.523c1.668,1.748,3.905,2.629,6.146,2.629c2.107,0,4.22-0.78,5.864-2.35
	C-167.418,158.264-167.293,152.888-170.532,149.493z M-143.629,161.503c3.393-3.239,3.519-8.615,0.279-12.01l-27.222-28.522
	c-3.24-3.394-8.617-3.521-12.012-0.28c-3.393,3.239-3.519,8.616-0.278,12.01l27.222,28.523c1.669,1.748,3.905,2.629,6.146,2.629
	C-147.386,163.853-145.274,163.072-143.629,161.503z"/>
</svg>
