<svg xmlns="http://www.w3.org/2000/svg" id="Layer_1" viewBox="2308 47 200 200">
  <path id="uxonbeer" fill="#7A6831" d="M2359.412 227c-10.624 0-19.267-8.643-19.267-19.268v-99.708c-4.324-4.534-6.7-10.462-6.7-16.73 0-13.396 10.897-24.294 24.29-24.294 4.56 0 8.987 1.277 12.845 3.696 3.86-2.42 8.288-3.696 12.845-3.696 4.556 0 8.984 1.276 12.845 3.697 3.86-2.42 8.29-3.697 12.846-3.697s8.985 1.277 12.845 3.696c3.86-2.42 8.287-3.696 12.845-3.696 13.394 0 24.293 10.898 24.293 24.293 0 6.27-2.378 12.197-6.702 16.73v18.453h19.267c6.005 0 10.89 4.885 10.89 10.89v42.723h-.406c-1.995 10.555-11.42 18.428-22.21 18.428h-7.54v9.214c0 10.625-8.644 19.268-19.27 19.268h-73.715zm-1.675-154.974c-10.624 0-19.267 8.643-19.267 19.267 0 5.277 2.106 10.207 5.93 13.88l.772.744v101.816c0 7.853 6.388 14.24 14.24 14.24h73.717c7.852 0 14.24-6.387 14.24-14.24v-14.24h12.566c9.075 0 16.767-7.083 17.513-16.124l.08-.96-.003-39.042c0-3.234-2.63-5.864-5.864-5.864h-24.293V105.92l.77-.743c3.825-3.675 5.932-8.605 5.932-13.882 0-10.624-8.643-19.267-19.268-19.267-4.1 0-8.027 1.29-11.36 3.733l-1.483 1.09-1.484-1.09c-3.333-2.44-7.262-3.732-11.36-3.732-4.1 0-8.026 1.29-11.36 3.733l-1.485 1.09-1.483-1.09c-3.334-2.44-7.262-3.732-11.36-3.732-4.1 0-8.027 1.29-11.36 3.733l-1.485 1.09-1.485-1.09c-3.333-2.443-7.26-3.734-11.36-3.734zm99.687 109.738v-5.026h.838c2.168 0 3.746-.564 4.688-1.677 1.706-2.014 1.214-5.42 1.21-5.456l-.03-.337-.004-21.85c0-2.268-1.757-2.513-2.512-2.513h-10.89v-5.026h10.89c3.03 0 7.54 2.01 7.54 7.54v21.604c.136 1.07.55 5.843-2.366 9.287-1.943 2.29-4.81 3.453-8.524 3.453h-.84zm-66.162-86.952v26.284c0 22.115-32.38 22.173-32.38 0V94.812h3.197v26.284c0 18.186 25.98 18.127 25.98 0V94.812h3.202zm36.642.06h3.503v.06l-14.38 20.483 15.532 21.63v.06h-3.867l-13.657-19.333-13.657 19.334h-3.87v-.06l15.534-21.63-14.38-20.484v-.06h3.56l12.813 18.066 12.867-18.065zm-33.786 69.78c-.058 10.095-6.474 19.81-19.375 19.81-12.896 0-19.37-9.768-19.37-19.92 0-10.32 6.42-19.758 19.37-19.758 12.954 0 19.43 9.492 19.375 19.867zm-35.837-.058c.053 8.672 5.54 17.125 16.463 17.125 10.98 0 16.52-8.455 16.52-17.126 0-8.89-5.487-17.068-16.52-17.068-11.028 0-16.515 8.013-16.462 17.068zm45.517-19.207l25.85 31.776v-31.776h2.91v38.416h-1.152l-25.906-31.72v31.72h-2.963v-38.416h1.26zm-29.64 49.8c0 2.128-1.297 3.783-3.367 4.434 2.603.71 4.08 2.81 4.08 5.203 0 4.256-3.962 5.41-7.508 5.41h-8.482V189.54h8.482c3.49 0 6.796 1.716 6.796 5.647zm-13.682 3.724h7.094c2.48 0 5.082-.767 5.082-3.723 0-3.016-2.72-4.286-5.29-4.286h-6.887v8.01zm0 9.784h6.887c2.6 0 5.94-.62 5.94-3.902-.03-3.22-2.954-4.373-5.733-4.373h-7.095v8.274zm20.524-9.606h12.117v1.45H2381v8.156h13.064v1.538h-14.63V189.54h14.277v1.51H2381v8.038zm19.193 0h12.116v1.45h-12.117v8.156h13.063v1.538h-14.628V189.54h14.275v1.51h-12.71v8.038zm34.12 11.143h-2.1l-7.153-7.833h-5.645v7.834h-1.596v-20.69h9.103c4.492 0 6.77 3.223 6.798 6.444.028 3.37-2.187 6.326-6.71 6.326l7.303 7.92zm-14.897-9.34h7.328c3.606 0 5.203-2.04 5.232-4.936.03-2.423-1.626-4.936-5.054-4.936h-7.507v9.872z"/>
</svg>