<svg xmlns="http://www.w3.org/2000/svg" id="Layer_1" viewBox="-271 28 240 240">
  <path id="shenkar" fill="#7A6831" d="M-180.16 83.378h-17.82v-14.58h17.82v14.58zm0 25.92h-17.82v51.84h17.82v-51.84zm38.88-40.5h-17.82v53.46h17.82v-53.46zm21.06 118.26v4.406l-10.53 10.53-10.53-10.53v-43.286h-17.82v43.286l-10.53 10.53-10.53-10.53v-4.406h-17.82v11.794l28.35 28.35 19.44-19.44 19.44 19.44 28.35-28.35v-11.794h-17.82zm0-118.26v14.58h17.82v-14.58h-17.82zm0 40.5v51.84h17.82v-51.84h-17.82zM-70 87.428h-67.23v17.82H-70v-17.82zm-162 77.76v17.82h68.85v-17.82H-232zm68.85-59.94v-17.82h-53.104l-28.35 28.35 28.35 28.35h14.223v-17.82h-6.837l-10.53-10.53 10.53-10.53h45.717zm-12.96 21.06v17.82h51.84v-17.82h-51.84zm90.364 0H-98.35v17.82h5.215l10.53 10.53-10.53 10.53h-44.097v17.82h51.485l28.35-28.35-28.35-28.35z"/>
</svg>