<svg xmlns="http://www.w3.org/2000/svg" id="Layer_1" viewBox="2308 47 200 200">
  <path id="logo-kof" fill="#FBF5D5" d="M2482.71 131.207c-1.393-2.477-4.532-3.354-7.01-1.96l-37.482 21.103v-9.976c4.137-2.48 8.157-4.892 11.04-6.626l.1-.06c4.073-2.578 8.672-5.838 11.915-10.47 4.448-6.358 5.027-13.6 1.673-20.942-1.98-4.332-5.565-7.397-10.097-8.628-4.784-1.3-12.87-1.177-24.226 6.79-2.327 1.63-2.89 4.84-1.258 7.17s4.842 2.89 7.17 1.257c6.22-4.363 11.912-6.29 15.614-5.282 1.595.433 2.718 1.405 3.433 2.97 3.126 6.844.412 12.007-9.68 18.406-1.603.963-3.558 2.138-5.683 3.412v-10.068c0-2.843-2.304-5.147-5.147-5.147s-5.147 2.304-5.147 5.147v16.24l-5.38 3.222v-25.078c0-1.83-.972-3.52-2.55-4.443-1.58-.924-3.53-.94-5.123-.042l-10.11 5.69V99.206l10.583-5.945c.074-.042.146-.085.218-.13 6.047-3.802 10.28-8.014 12.582-12.52 2.25-4.405 2.59-9.118.96-13.27-2.842-7.238-11.02-11.553-19.022-10.038-3.664.693-15.615 4.525-15.615 24.718v11.16l-34.81 19.556c-1.62.91-2.625 2.627-2.625 4.488v78.835l-6.583 3.705c-19.99 11.26-18.56 22.55-17.02 26.88 2.227 6.252 8.628 10.356 15.598 10.356 1 0 2.014-.084 3.027-.26 7.383-1.274 15.272-7.863 15.272-22.53v-12.133l60.596-34.116v9.895l-6.647 3.738c-15.736 8.26-13.507 19.29-12.447 22.48 2.187 6.575 8.708 11.28 15.17 11.28.687 0 1.376-.052 2.058-.163 2.854-.462 12.16-3.234 12.16-19.504v-11.81l34.89-19.62c2.478-1.393 3.357-4.532 1.964-7.01-1.394-2.477-4.533-3.356-7.01-1.963l-29.843 16.782v-9.9l42.534-23.947c2.475-1.395 3.352-4.534 1.957-7.01zm-77.948-49.187c0-8.286 2.705-13.745 7.236-14.603.427-.08.86-.12 1.29-.12 2.71 0 5.346 1.54 6.235 3.805 1.427 3.632-2.15 8.702-9.335 13.247l-5.425 3.047V82.02zm-47.73 132.19c0 7.133-2.452 11.648-6.73 12.386-3.045.524-6.33-1.034-7.173-3.404-1.025-2.877 1.6-8.39 12.37-14.458l1.532-.862v6.337zm70.892-18.525c0 5.33-1.378 8.997-3.51 9.342-1.935.314-4.9-1.454-5.814-4.205-1.12-3.365 1.62-7.062 7.518-10.144l.14-.075 1.667-.938v6.02zm-60.596-5.423v-70.027l27.14-15.247v14.7l-12.316 6.933c-9.05 4.806-12.793 12.61-10.014 20.89 3.03 9.032 13.36 16.024 21.674 14.663 2.57-.42 10.95-2.833 10.95-16.272v-20.194l7.488-4.215v25.355c0 1.853.996 3.564 2.61 4.478 1.61.914 3.59.89 5.18-.06.08-.05 3.384-2.026 7.885-4.722v9.605l-60.597 34.117zm27.14-58.76v14.4c0 1.724-.227 5.77-2.317 6.112-3.098.507-8.733-3.247-10.254-7.778-.412-1.227-1.665-4.96 5.124-8.544l.122-.067 7.325-4.123z"/>
</svg>