<svg xmlns="http://www.w3.org/2000/svg" id="Layer_1" viewBox="-271 28 240 240">
  <path id="nuschools" fill="#7A6831" d="M-183.406 209.662v-45.2c0-13.163-5.714-19.915-17.664-19.915-11.6-.174-19.395 9.87-19.395 20.955v44.16h-24.592V124.11h22.515l.866 10.912c7.62-9.873 17.315-13.164 27.707-12.99 19.225 0 35.68 9.004 35.68 42.256v45.374h-25.116zm64.59-85.552v45.202c0 13.157 5.712 19.912 17.663 19.912 11.602.176 19.395-9.87 19.395-20.953v-44.16h24.595v85.552h-22.515l-.866-11.255c-7.62 10.217-17.318 13.16-27.71 12.985-19.224 0-35.67-8.66-35.67-41.91V124.11h25.107zM-56 84.6h-190v24.048h190V84.6z"/>
</svg>